# xmcd
# 
# Track frame offsets:
#     150
#     11302
#     22854
#     32376
#     42704
#     54132
#     64834
#     77030
#     88207
#     96284
#     107296
#     121908
#     134238
#     146111
#     156356
#     167206
#     180927
#     189226
#     200230
#     213172
# 
# Disc length: 2996
# 
# Revision: 3
# Processed by: cddbd v1.5.2PL0 Copyright (c) Steve Scherf et al.
# Submitted via: fre:ac v1.0.17
# 
DISCID=0d0bb214
DTITLE=Various Artist - The Roots Of Northern Soul CD2
DYEAR=2012
DGENRE=Soul
TTITLE0=Ronnie Love - Chills And Fever
TTITLE1=Marv Johnson - All The Love I've Got
TTITLE2=Mike Pedicin - Burnt Toast And Black Coffee
TTITLE3=Chuck Jackson - I Don't Want To Cry
TTITLE4=The Fabulous Playboys - Honky Tonk Woman
TTITLE5=Freddie Gorman - The Day Will Come
TTITLE6=Van Dellos - I Need You
TTITLE7=Various Artist - Joe Simon - I See Your Face
TTITLE8=The Knockouts - Fever
TTITLE9=Little Willie John - I'm Shakin'
TTITLE10=Mitty Collier - I Gotta Get Away From It All
TTITLE11=Ted Taylor - I Lost The Best Things I Ever Had
TTITLE12=Bobby Bland - Turn On Your Love Light
TTITLE13=Mary Wells - Come To Me
TTITLE14=Russell Byrd - You Better Come Home
TTITLE15=Sugar Pie DeSanto - I Want To Know
TTITLE16=The Destinations - Come On Let Me Love You
TTITLE17=The Barons - While The Cat's Away
TTITLE18=Johnny and Jackey - Someday We'll Be Together
TTITLE19=Chantels - Well, I Told You
EXTD=
EXTT0=
EXTT1=
EXTT2=
EXTT3=
EXTT4=
EXTT5=
EXTT6=
EXTT7=
EXTT8=
EXTT9=
EXTT10=
EXTT11=
EXTT12=
EXTT13=
EXTT14=
EXTT15=
EXTT16=
EXTT17=
EXTT18=
EXTT19=
PLAYORDER=
